<svg width="15" height="15" viewBox="0 0 15 15" xmlns="http://www.w3.org/2000/svg">
  <path d="M12.2988 9.0625C12.791 9.08073 13.2012 9.25391 13.5293 9.58203C13.8574 9.91016 14.0306 10.3203 14.0488 10.8125V13C14.0306 13.4922 13.8574 13.9023 13.5293 14.2305C13.2012 14.5586 12.791 14.7318 12.2988 14.75H1.79883C1.30664 14.7318 0.896484 14.5586 0.568359 14.2305C0.240234 13.9023 0.0670573 13.4922 0.0488281 13V10.8125C0.0670573 10.3203 0.240234 9.91016 0.568359 9.58203C0.896484 9.25391 1.30664 9.08073 1.79883 9.0625H3.27539L4.58789 10.375H1.79883C1.52539 10.3932 1.37956 10.5391 1.36133 10.8125V13C1.37956 13.2734 1.52539 13.4193 1.79883 13.4375H12.2988C12.5723 13.4193 12.7181 13.2734 12.7363 13V10.8125C12.7181 10.5391 12.5723 10.3932 12.2988 10.375H9.53711L10.8496 9.0625H12.2988ZM11.8613 11.9062C11.8249 12.3073 11.6061 12.526 11.2051 12.5625C10.804 12.526 10.5853 12.3073 10.5488 11.9062C10.5853 11.5052 10.804 11.2865 11.2051 11.25C11.6061 11.2865 11.8249 11.5052 11.8613 11.9062ZM6.58398 10.8125L2.83789 7.12109C2.58268 6.8112 2.58268 6.5013 2.83789 6.19141C3.14779 5.9362 3.45768 5.9362 3.76758 6.19141L6.39258 8.78906V1.40625C6.42904 1.00521 6.64779 0.786458 7.04883 0.75C7.44987 0.786458 7.66862 1.00521 7.70508 1.40625V8.78906L10.3027 6.19141C10.6126 5.9362 10.9225 5.9362 11.2324 6.19141C11.4876 6.5013 11.4876 6.8112 11.2324 7.12109L7.51367 10.8398C7.38607 10.9674 7.23112 11.0312 7.04883 11.0312C6.86654 11.0312 6.71159 10.9583 6.58398 10.8125Z" fill="white"/>
</svg>
